# xmcd CD database file
#
# Track frame offsets:
#	150
#	15100
#	25750
#	44045
#	55850
#	71820
#	85685
#	104455
#	108045
#	119970
#	134750
#	154805
#	171245
#	184155
#	195690
#	235395
#	246480
#	255775
#	266860
#	277935
#	306900
#
# Disc length: 4358 seconds
#
# Revision: 1
# Processed by: cddbd v1.4PL0 Copyright (c) Steve Scherf et al.
# Submitted via: CDex 1.50beta10
#
DISCID=30110415
DTITLE=Lojzo - "Komplet" cd 2.
DYEAR=1991
DGENRE=Folk-Rock
TTITLE0=Zipsy woman
TTITLE1=Schone Naci
TTITLE2=Opravovna dusi
TTITLE3=Naruby
TTITLE4=Hura na paprike
TTITLE5=Ticho po plesine
TTITLE6=Lopata-metla ludstva
TTITLE7=Po lopate (ludova)
TTITLE8=Za stolom si zviera
TTITLE9=Koniec komarov v Bratislave
TTITLE10=Balada o tureckom mede
TTITLE11=Hudobne sny
TTITLE12=Necekej ...
TTITLE13=Molekula blues
TTITLE14=Lojzo - vyber
TTITLE15=Politicke hrude
TTITLE16=Ja som dnes chory
TTITLE17=Prosim ta, stlac ma!
TTITLE18=Ano a normlane no ne
TTITLE19=Pernikova chalupka
TTITLE20=Kazdy den budu vraj Vianoce
EXTD=YEAR: 1991
EXTT0=
EXTT1=
EXTT2=
EXTT3=
EXTT4=
EXTT5=
EXTT6=
EXTT7=
EXTT8=
EXTT9=
EXTT10=
EXTT11=
EXTT12=
EXTT13=
EXTT14=
EXTT15=
EXTT16=
EXTT17=
EXTT18=
EXTT19=
EXTT20=
PLAYORDER=
